<mxfile host="app.diagrams.net" modified="2023-09-12T14:57:49.491Z" agent="Mozilla/5.0 (Windows NT 10.0; Win64; x64) AppleWebKit/537.36 (KHTML, like Gecko) Chrome/116.0.0.0 Safari/537.36" etag="xyFYKKO7r89peOICGxIq" version="21.7.2" type="device">
  <diagram name="Página-1" id="G3QEJugN3Pe26EBjsih7">
    <mxGraphModel dx="880" dy="1639" grid="1" gridSize="10" guides="1" tooltips="1" connect="1" arrows="1" fold="1" page="1" pageScale="1" pageWidth="827" pageHeight="1169" math="0" shadow="0">
      <root>
        <mxCell id="0" />
        <mxCell id="1" parent="0" />
        <mxCell id="KECzh_-4RJwkBhUYf3_h-21" style="edgeStyle=orthogonalEdgeStyle;rounded=0;orthogonalLoop=1;jettySize=auto;html=1;strokeColor=#E07A5F;fontColor=#393C56;fillColor=#F2CC8F;" edge="1" parent="1" source="KECzh_-4RJwkBhUYf3_h-2" target="KECzh_-4RJwkBhUYf3_h-11">
          <mxGeometry relative="1" as="geometry" />
        </mxCell>
        <mxCell id="KECzh_-4RJwkBhUYf3_h-2" value="Testar novamente?" style="rhombus;whiteSpace=wrap;html=1;labelBackgroundColor=none;fillColor=#F2CC8F;strokeColor=#E07A5F;fontColor=#393C56;" vertex="1" parent="1">
          <mxGeometry x="495" y="230" width="80" height="80" as="geometry" />
        </mxCell>
        <mxCell id="KECzh_-4RJwkBhUYf3_h-9" value="" style="ellipse;html=1;shape=startState;fillColor=#000000;strokeColor=#ff0000;fontColor=#393C56;" vertex="1" parent="1">
          <mxGeometry x="135" y="60" width="30" height="30" as="geometry" />
        </mxCell>
        <mxCell id="KECzh_-4RJwkBhUYf3_h-10" value="" style="edgeStyle=orthogonalEdgeStyle;html=1;verticalAlign=bottom;endArrow=open;endSize=8;strokeColor=#ff0000;rounded=0;fontColor=#393C56;fillColor=#F2CC8F;entryX=0.5;entryY=0;entryDx=0;entryDy=0;" edge="1" source="KECzh_-4RJwkBhUYf3_h-9" parent="1" target="KECzh_-4RJwkBhUYf3_h-12">
          <mxGeometry relative="1" as="geometry">
            <mxPoint x="150" y="150" as="targetPoint" />
          </mxGeometry>
        </mxCell>
        <mxCell id="KECzh_-4RJwkBhUYf3_h-11" value="" style="ellipse;html=1;shape=endState;fillColor=#000000;strokeColor=#ff0000;fontColor=#393C56;" vertex="1" parent="1">
          <mxGeometry x="520" y="70" width="30" height="30" as="geometry" />
        </mxCell>
        <mxCell id="KECzh_-4RJwkBhUYf3_h-12" value="Escolher opção de devolução no sistema" style="rounded=0;whiteSpace=wrap;html=1;strokeColor=#E07A5F;fontColor=#393C56;fillColor=#F2CC8F;" vertex="1" parent="1">
          <mxGeometry x="90" y="130" width="120" height="60" as="geometry" />
        </mxCell>
        <mxCell id="KECzh_-4RJwkBhUYf3_h-27" style="edgeStyle=orthogonalEdgeStyle;rounded=0;orthogonalLoop=1;jettySize=auto;html=1;entryX=0;entryY=0.5;entryDx=0;entryDy=0;strokeColor=#E07A5F;fontColor=#393C56;fillColor=#F2CC8F;" edge="1" parent="1" source="KECzh_-4RJwkBhUYf3_h-13" target="KECzh_-4RJwkBhUYf3_h-15">
          <mxGeometry relative="1" as="geometry" />
        </mxCell>
        <mxCell id="KECzh_-4RJwkBhUYf3_h-13" value="Inserir ISBN do livro" style="rounded=0;whiteSpace=wrap;html=1;strokeColor=#E07A5F;fontColor=#393C56;fillColor=#F2CC8F;" vertex="1" parent="1">
          <mxGeometry x="90" y="240" width="120" height="60" as="geometry" />
        </mxCell>
        <mxCell id="KECzh_-4RJwkBhUYf3_h-28" style="edgeStyle=orthogonalEdgeStyle;rounded=0;orthogonalLoop=1;jettySize=auto;html=1;strokeColor=#E07A5F;fontColor=#393C56;fillColor=#F2CC8F;" edge="1" parent="1" source="KECzh_-4RJwkBhUYf3_h-14" target="KECzh_-4RJwkBhUYf3_h-15">
          <mxGeometry relative="1" as="geometry" />
        </mxCell>
        <mxCell id="KECzh_-4RJwkBhUYf3_h-14" value="Retornar mensagem" style="rounded=0;whiteSpace=wrap;html=1;strokeColor=#E07A5F;fontColor=#393C56;fillColor=#F2CC8F;" vertex="1" parent="1">
          <mxGeometry x="90" y="380" width="120" height="60" as="geometry" />
        </mxCell>
        <mxCell id="KECzh_-4RJwkBhUYf3_h-26" value="" style="edgeStyle=orthogonalEdgeStyle;rounded=0;orthogonalLoop=1;jettySize=auto;html=1;strokeColor=#E07A5F;fontColor=#393C56;fillColor=#F2CC8F;" edge="1" parent="1" source="KECzh_-4RJwkBhUYf3_h-15" target="KECzh_-4RJwkBhUYf3_h-16">
          <mxGeometry relative="1" as="geometry" />
        </mxCell>
        <mxCell id="KECzh_-4RJwkBhUYf3_h-15" value="Livro disponível?" style="rhombus;whiteSpace=wrap;html=1;labelBackgroundColor=none;fillColor=#F2CC8F;strokeColor=#E07A5F;fontColor=#393C56;" vertex="1" parent="1">
          <mxGeometry x="340" y="230" width="80" height="80" as="geometry" />
        </mxCell>
        <mxCell id="KECzh_-4RJwkBhUYf3_h-18" style="edgeStyle=orthogonalEdgeStyle;rounded=0;orthogonalLoop=1;jettySize=auto;html=1;entryX=0.5;entryY=1;entryDx=0;entryDy=0;strokeColor=#E07A5F;fontColor=#393C56;fillColor=#F2CC8F;" edge="1" parent="1" source="KECzh_-4RJwkBhUYf3_h-16" target="KECzh_-4RJwkBhUYf3_h-11">
          <mxGeometry relative="1" as="geometry" />
        </mxCell>
        <mxCell id="KECzh_-4RJwkBhUYf3_h-31" value="" style="edgeStyle=orthogonalEdgeStyle;rounded=0;orthogonalLoop=1;jettySize=auto;html=1;strokeColor=#E07A5F;fontColor=#393C56;fillColor=#F2CC8F;" edge="1" parent="1" source="KECzh_-4RJwkBhUYf3_h-16" target="KECzh_-4RJwkBhUYf3_h-17">
          <mxGeometry relative="1" as="geometry" />
        </mxCell>
        <mxCell id="KECzh_-4RJwkBhUYf3_h-16" value="Realizar devolução" style="rounded=0;whiteSpace=wrap;html=1;strokeColor=#E07A5F;fontColor=#393C56;fillColor=#F2CC8F;" vertex="1" parent="1">
          <mxGeometry x="320" y="110" width="120" height="60" as="geometry" />
        </mxCell>
        <mxCell id="KECzh_-4RJwkBhUYf3_h-17" value="Gravar histórico de devolução" style="rounded=0;whiteSpace=wrap;html=1;strokeColor=#E07A5F;fontColor=#393C56;fillColor=#F2CC8F;" vertex="1" parent="1">
          <mxGeometry x="320" y="10" width="120" height="60" as="geometry" />
        </mxCell>
        <mxCell id="KECzh_-4RJwkBhUYf3_h-32" value="&lt;font style=&quot;font-size: 29px;&quot;&gt;&lt;b&gt;Devolução&lt;/b&gt;&lt;/font&gt;" style="text;html=1;strokeColor=none;fillColor=none;align=center;verticalAlign=middle;whiteSpace=wrap;rounded=0;fontColor=#393C56;" vertex="1" parent="1">
          <mxGeometry x="340" y="-70" width="60" height="30" as="geometry" />
        </mxCell>
      </root>
    </mxGraphModel>
  </diagram>
</mxfile>
